# xmcd
#
# Track frame offsets:
#	150
#	13433
#	26768
#	36620
#	49161
#	59007
#	69791
#	81253
#	92959
#	110382
#	122675
#	134472
#
# Disc length: 1926 seconds
#
# Revision: 1
# Processed by: cddbd v1.5.1PL0 Copyright (c) Steve Scherf et al.
# Submitted via: audiograbber 1.83.01
#
DISCID=b007840c
DTITLE=Roy Acuff - A Living Legend
DYEAR=1900
DGENRE=
TTITLE0=Goodbye My Love (I Heard A Silver Trumpet)
TTITLE1=No One Will Ever Know
TTITLE2=Easy Rocking Chair
TTITLE3=The Rising Sun
TTITLE4=Waltz Of The Wind
TTITLE5=We Live In Two Different Worlds
TTITLE6=Blue Eyes Crying In The Rain
TTITLE7=The Last Letter
TTITLE8=Mommy, Pleasy Stay Home With Me
TTITLE9=That Silver Haired Daddy
TTITLE10=Sweeter Than The Flowers
TTITLE11=A Hundred And Forty-Four Thousand
EXTD=
EXTT0=
EXTT1=
EXTT2=
EXTT3=
EXTT4=
EXTT5=
EXTT6=
EXTT7=
EXTT8=
EXTT9=
EXTT10=
EXTT11=
PLAYORDER=
